<?xml version="1.0" encoding="utf-8"?>
<!-- Generator: Adobe Illustrator 15.1.0, SVG Export Plug-In  -->
<!DOCTYPE svg PUBLIC "-//W3C//DTD SVG 1.1//EN" "http://www.w3.org/Graphics/SVG/1.1/DTD/svg11.dtd" [
	<!ENTITY ns_flows "http://ns.adobe.com/Flows/1.0/">
]>
<svg version="1.1"
	 xmlns="http://www.w3.org/2000/svg" xmlns:xlink="http://www.w3.org/1999/xlink" xmlns:a="http://ns.adobe.com/AdobeSVGViewerExtensions/3.0/"
	 x="0px" y="0px" width="792px" height="792px" viewBox="-61.793 -15.458 792 792" enable-background="new -61.793 -15.458 792 792"
	 xml:space="preserve">
<defs>
</defs>
<circle cx="334.207" cy="332.473" r="332.473"/>
<path fill="#AB1F24" d="M599.047,425.532c7.912-29.425,12.182-60.671,12.182-93.059H348.17L599.047,425.532z"/>
<path fill="#9E1D20" d="M261.187,26.841c-29.132,9.009-56.359,23.293-80.848,41.911L348.17,332.473L261.187,26.841z"/>
<path fill="#9E1D20" d="M56.516,332.473c0,35.931,5.252,70.461,14.913,102.655L348.17,332.473H56.516z"/>
<path fill="#9E1D20" d="M114.531,526.265c18.451,27.176,40.686,50.827,65.808,69.928L348.17,332.473L114.531,526.265z"/>
<path fill="#AB1F24" d="M348.17,332.473L348.17,332.473L71.429,229.817c-9.66,32.194-14.913,66.723-14.913,102.656H348.17
	L348.17,332.473z"/>
<path fill="#AB1F24" d="M348.17,332.473L348.17,332.473L348.17,332.473L348.17,332.473L71.429,435.128
	c9.967,33.218,24.639,63.938,43.103,91.137L348.17,332.473L348.17,332.473z"/>
<path fill="#9E1D20" d="M114.531,138.68c-18.464,27.199-33.136,57.919-43.103,91.137L348.17,332.473L114.531,138.68z"/>
<path fill="#AB1F24" d="M348.17,332.473L348.17,332.473L180.339,68.752c-25.122,19.101-47.356,42.752-65.808,69.928L348.17,332.473
	L348.17,332.473z"/>
<path fill="#9E1D20" d="M348.17,332.473L348.17,332.473L348.17,332.473L348.17,332.473L348.17,332.473l214.938,178.28
	c15.488-25.908,27.697-54.571,35.939-85.221L348.17,332.473z"/>
<path fill="#AB1F24" d="M506.113,580.654c21.938-19.868,41.176-43.444,56.994-69.901L348.17,332.473L506.113,580.654z"/>
<path fill="#AB1F24" d="M348.17,332.473L348.17,332.473L348.17,332.473L348.17,332.473V16.245
	c-4.735-0.274-9.503-0.414-14.297-0.414c-25.154,0-49.518,3.846-72.687,11.01L348.17,332.473L348.17,332.473z"/>
<path fill="#9E1D20" d="M348.17,332.473L348.17,332.473l84.256,296.043c26.799-11.635,51.609-27.864,73.688-47.862L348.17,332.473
	L348.17,332.473z"/>
<path fill="#9E1D20" d="M348.17,332.473l-86.984,305.629c23.17,7.165,47.533,11.012,72.688,11.012c4.794,0,9.562-0.14,14.297-0.415
	V332.473L348.17,332.473z"/>
<path fill="#AB1F24" d="M348.17,332.473L348.17,332.473L180.339,596.192c24.488,18.618,51.716,32.903,80.847,41.91L348.17,332.473
	L348.17,332.473z"/>
<path fill="#AB1F24" d="M348.17,648.699c29.547-1.713,57.861-8.725,84.256-20.183L348.17,332.473V648.699z"/>
<path fill="#9E1D20" d="M348.17,332.473L348.17,332.473h263.059c0-32.388-4.27-63.635-12.182-93.061l-250.875,93.061H348.17z"/>
<path fill="#9E1D20" d="M348.172,332.473l214.936-178.28c-15.818-26.457-35.057-50.034-56.994-69.903L348.17,332.473H348.172z"/>
<path fill="#AB1F24" d="M348.17,332.473L348.17,332.473L506.113,84.291c-22.078-19.998-46.889-36.228-73.686-47.861L348.17,332.473
	L348.17,332.473z"/>
<path fill="#AB1F24" d="M599.047,239.413c-8.242-30.648-20.451-59.312-35.939-85.219l-214.936,178.28L599.047,239.413z"/>
<path fill="#9E1D20" d="M432.428,36.43c-26.396-11.459-54.711-18.472-84.258-20.185v316.228L432.428,36.43z"/>
<radialGradient id="SVGID_1_" cx="380.333" cy="336.3301" r="316.6416" gradientTransform="matrix(0.8761 0 0 1 0.7183 0)" gradientUnits="userSpaceOnUse">
	<stop  offset="0" style="stop-color:#000000"/>
	<stop  offset="1" style="stop-color:#000000;stop-opacity:0"/>
</radialGradient>
<ellipse fill="url(#SVGID_1_)" cx="333.91" cy="336.33" rx="277.395" ry="316.642"/>
<polygon points="287.098,582.975 304.713,615.036 334.207,615.036 363.701,615.036 380.723,583.37 334.207,567.531 "/>
<path d="M526.609,328.418l65.916-39.787l-77.793-57.601l-81.949-103.922l-22.564-77.199l-38.006,116.986l-15.605-10.293
	l-14.681,10.887l-8.61-6.83l-6.829,6.829l-24.908-10.275l-5.378,9.682L258.196,49.909l-22.566,77.198l-81.948,103.922L75.89,288.631
	l65.915,39.787l-7.126,16.627l43.944,22.566l-11.581,29.098l84.622,32.66l34.443,148.459l48.1-11.876l48.102,11.876l34.441-148.459
	l84.621-32.66l-11.58-29.098l43.943-22.566L526.609,328.418z M240.976,281.197l24.94-26.92l40.776,74.823L240.976,281.197z
	 M334.207,547.745l-22.4-38.799h44.801L334.207,547.745z M361.723,329.1l40.773-74.823l24.943,26.92L361.723,329.1z"/>
<polygon opacity="0.5" fill="#9E1D20" points="240.976,281.197 306.692,329.1 265.916,254.277 "/>
<polygon opacity="0.5" fill="#9E1D20" points="361.723,329.1 427.439,281.197 402.496,254.277 "/>
<polygon opacity="0.5" fill="#9E1D20" points="334.207,547.745 356.607,508.946 311.807,508.946 "/>
<path d="M67.362,760.009H46.02v-32.043H21.342v32.043H0v-78.6h21.342v29.139H46.02v-29.139h21.343V760.009z"/>
<path d="M132.575,760.009l-3.871-14.731h-25.537l-3.979,14.731H75.855l25.644-78.922h28.333l25.968,78.922H132.575z
	 M124.294,727.859l-3.386-12.903c-0.789-2.866-1.747-6.576-2.877-11.129c-1.128-4.552-1.873-7.812-2.229-9.784
	c-0.324,1.827-0.96,4.839-1.909,9.031c-0.952,4.194-3.058,12.455-6.317,24.785H124.294z"/>
<path d="M215.688,736.139c0,4.875-1.235,9.201-3.71,12.983c-2.472,3.781-6.04,6.72-10.697,8.816
	c-4.66,2.096-10.126,3.146-16.398,3.146c-5.231,0-9.622-0.369-13.171-1.103c-3.548-0.734-7.24-2.017-11.075-3.844v-18.924
	c4.05,2.079,8.262,3.701,12.633,4.864c4.375,1.165,8.387,1.748,12.043,1.748c3.155,0,5.466-0.546,6.937-1.641
	c1.469-1.093,2.205-2.5,2.205-4.22c0-1.075-0.297-2.017-0.889-2.822c-0.591-0.808-1.542-1.621-2.848-2.446
	c-1.309-0.823-4.794-2.508-10.456-5.054c-5.127-2.329-8.972-4.587-11.534-6.773s-4.461-4.695-5.699-7.526
	c-1.234-2.832-1.854-6.183-1.854-10.054c0-7.24,2.634-12.885,7.904-16.936c5.267-4.049,12.507-6.075,21.72-6.075
	c8.135,0,16.431,1.883,24.89,5.646l-6.506,16.397c-7.347-3.369-13.689-5.054-19.029-5.054c-2.761,0-4.768,0.484-6.021,1.451
	c-1.256,0.968-1.883,2.17-1.883,3.603c0,1.541,0.798,2.922,2.392,4.14c1.595,1.22,5.923,3.44,12.984,6.666
	c6.773,3.047,11.479,6.317,14.112,9.812C214.371,726.435,215.688,730.834,215.688,736.139z"/>
<path d="M295.202,760.009h-21.345v-32.043h-24.675v32.043h-21.345v-78.6h21.345v29.139h24.675v-29.139h21.345V760.009z"/>
<path d="M407.51,719.041c0,13.119-3.613,23.227-10.834,30.322c-7.221,7.097-17.373,10.646-30.454,10.646h-25.431v-78.6h27.203
	c12.615,0,22.355,3.225,29.219,9.677C404.076,697.537,407.51,706.856,407.51,719.041z M385.465,719.794
	c0-7.203-1.424-12.543-4.271-16.021c-2.852-3.476-7.178-5.215-12.984-5.215h-6.184v44.03h4.732c6.451,0,11.182-1.873,14.191-5.617
	C383.961,733.228,385.465,727.501,385.465,719.794z"/>
<path d="M488.42,681.409v47.31c0,10.287-2.912,18.253-8.736,23.896c-5.824,5.646-14.219,8.469-25.188,8.469
	c-10.717,0-18.949-2.742-24.703-8.227c-5.75-5.483-8.629-13.368-8.629-23.655v-47.793h21.346v46.127
	c0,5.556,1.037,9.588,3.115,12.096c2.08,2.511,5.145,3.764,9.195,3.764c4.336,0,7.48-1.244,9.436-3.735
	c1.951-2.491,2.928-6.568,2.928-12.231v-46.02H488.42z"/>
<path d="M539.172,760.009l-16.074-56.611h-0.484c0.75,9.642,1.127,17.132,1.127,22.472v34.14h-18.816v-78.6h28.279l16.396,55.805
	h0.43l16.076-55.805h28.334v78.6h-19.518v-34.462c0-1.791,0.027-3.78,0.08-5.967c0.055-2.187,0.299-7.544,0.729-16.075h-0.484
	l-15.859,56.504H539.172z"/>
<path d="M668.414,706.408c0,8.781-2.59,15.563-7.77,20.349c-5.18,4.783-12.537,7.178-22.07,7.178h-5.967v26.074h-21.236v-78.6
	h27.203c9.928,0,17.383,2.169,22.365,6.506C665.922,692.251,668.414,698.416,668.414,706.408z M632.607,716.623h3.871
	c3.191,0,5.727-0.896,7.607-2.688c1.883-1.791,2.824-4.265,2.824-7.419c0-5.304-2.939-7.957-8.818-7.957h-5.484V716.623z"/>
</svg>
